<?xml version="1.0" encoding="UTF-8"?><svg xmlns="http://www.w3.org/2000/svg" viewBox="0 0 220 220"><g id="a"/><g id="b"><g id="c"><g><path d="M110,220C49.25,220,0,170.75,0,110H.64c28.19,0,52.8,18.68,60.86,45.69,8.22,27.57,31.26,59.91,48.5,59.91s40.28-32.34,48.5-59.91c8.06-27.02,32.67-45.69,60.86-45.69h.64c0,60.75-49.25,110-110,110Z"/><path d="M110,0C49.25,0,0,49.25,0,110H.64c28.19,0,52.8-18.68,60.86-45.69,8.22-27.57,31.26-59.91,48.5-59.91s40.28,32.34,48.5,59.91c8.06,27.02,32.67,45.69,60.86,45.69h.64C220,49.25,170.75,0,110,0Z"/></g></g></g></svg>