<?xml version="1.0" encoding="UTF-8"?><svg xmlns="http://www.w3.org/2000/svg" viewBox="0 0 1166.29 220"><g id="a"/><g id="b"><g id="c"><g><g><path d="M110,220C49.25,220,0,170.75,0,110H.64c28.19,0,52.8,18.68,60.86,45.69,8.22,27.57,31.26,59.91,48.5,59.91s40.28-32.34,48.5-59.91c8.06-27.02,32.67-45.69,60.86-45.69h.64c0,60.75-49.25,110-110,110Z"/><path d="M110,0C49.25,0,0,49.25,0,110H.64c28.19,0,52.8-18.68,60.86-45.69,8.22-27.57,31.26-59.91,48.5-59.91s40.28,32.34,48.5,59.91c8.06,27.02,32.67,45.69,60.86,45.69h.64C220,49.25,170.75,0,110,0Z"/></g><g><path d="M275.06,118.33v39.48h-15.46V57h67.03v14.11h-51.58v33.77h46.03v13.44h-46.03Z"/><path d="M329.39,119.17c0-26.21,15.29-41.83,38.98-41.83s35.28,14.45,35.28,36.12c0,2.35-.17,5.88-.5,9.41h-59.14c1.18,15.96,9.58,24.7,24.7,24.7,14.11,0,18.98-7.06,21.5-15.79l12.77,3.53c-3.86,14.95-13.94,24.36-34.27,24.36-24.36,0-39.31-14.45-39.31-40.49Zm14.78-6.89h45.86c-.67-14.95-7.56-23.35-22.01-23.35s-22.18,7.73-23.86,23.35Z"/><path d="M409.86,119.17c0-26.21,15.29-41.83,38.98-41.83s35.28,14.45,35.28,36.12c0,2.35-.17,5.88-.5,9.41h-59.14c1.18,15.96,9.58,24.7,24.7,24.7,14.11,0,18.98-7.06,21.5-15.79l12.77,3.53c-3.86,14.95-13.94,24.36-34.27,24.36-24.36,0-39.31-14.45-39.31-40.49Zm14.78-6.89h45.86c-.67-14.95-7.56-23.35-22.01-23.35s-22.18,7.73-23.86,23.35Z"/><path d="M509.77,157.8h-14.62V49.95h14.62v107.86Z"/><path d="M523.86,64.23v-13.27h16.8v13.27h-16.8Zm1.01,93.58V79.35h14.62v78.46h-14.62Z"/><path d="M568.94,157.8h-14.62V79.35h14.28v20.33h1.51c4.37-13.94,14.78-22.34,28.39-22.34,17.47,0,25.37,11.42,25.37,28.56v51.91h-14.62v-48.38c0-10.75-4.37-18.82-16.97-18.82-13.94,0-23.35,8.9-23.35,22.34v44.86Z"/><path d="M667.55,186.2c-29.57,.17-38.3-6.38-38.3-16.8,0-6.89,6.72-11.76,17.64-14.11v-.84c-5.88-1.18-9.74-4.37-9.74-9.91,0-4.03,3.36-7.56,8.06-10.08l5.88-3.7c-11.26-3.86-17.3-12.43-17.3-24.02,0-17.81,12.6-27.38,33.94-27.38h38.14v11.59h-9.41c-4.2,0-9.24-.34-16.3-1.01v1.51c10.75,2.18,19.66,6.72,19.66,18.14,0,14.62-11.42,23.35-33.26,23.35-5.04,0-9.41-.5-13.27-1.68l-2.18,3.53c-1.34,2.18-2.35,3.7-2.35,5.38,0,3.36,2.86,4.7,8.23,4.7,8.74,0,18.14-.17,26.71-.17,15.96,0,24.19,6.89,24.19,18.82,0,15.46-9.91,22.85-40.32,22.68Zm28.22-22.18c0-5.04-3.53-8.9-12.26-8.9h-28.22c-9.74,0-14.28,5.21-14.28,10.08,0,7.06,5.71,10.08,27.05,10.08,22.51,0,27.72-3.86,27.72-11.26Zm-48.55-57.29c0,9.74,5.38,15.62,19.66,15.62s20.16-5.71,20.16-15.62-6.89-15.79-20.5-15.79-19.32,6.38-19.32,15.79Z"/><path d="M747.35,157.8h-14.45V57h25.7l17.98,46.7c2.52,6.89,7.39,21,10.75,32.26h3.19c3.53-11.26,8.06-24.86,10.92-32.59l18.48-46.37h24.19v100.8h-15.29v-49.9c0-11.42,.34-26.71,.67-38.14h-3.19c-3.7,12.26-8.74,27.72-13.94,40.99l-16.8,40.99h-15.62l-16.46-41.66c-5.21-14.11-9.91-28.39-13.44-40.32h-2.86c.34,11.59,.17,26.38,.17,38.14v49.9Z"/><path d="M910.31,137.31h-1.34c-4.37,13.94-14.78,22.51-28.39,22.51-17.64,0-25.54-11.59-25.54-28.73v-51.74h14.62v48.22c0,10.92,4.54,18.82,17.14,18.82,13.94,0,23.18-8.74,23.18-22.18v-44.86h14.62v78.46h-14.28v-20.5Z"/><path d="M943.47,91.45h-11.93v-12.1h11.93v-22.01h14.62v22.01h25.03v12.1h-25.03v41.33c0,8.9,3.36,13.44,12.1,13.44,4.2,0,7.73-.84,11.93-2.02l1.85,12.94c-5.38,1.68-9.58,2.69-16.8,2.69-16.46,0-23.69-10.75-23.69-25.37v-43.01Z"/><path d="M1045.49,137.31h-1.34c-4.37,13.94-14.78,22.51-28.39,22.51-17.64,0-25.54-11.59-25.54-28.73v-51.74h14.62v48.22c0,10.92,4.54,18.82,17.14,18.82,13.94,0,23.18-8.74,23.18-22.18v-44.86h14.62v78.46h-14.28v-20.5Z"/><path d="M1123.55,139.16h-1.51c-3.86,12.94-13.94,20.33-27.89,20.33-14.78,0-24.36-6.72-24.36-21.84,0-13.61,8.74-23.52,27.89-23.52h25.2v-6.38c0-11.76-4.54-18.14-17.3-18.14-10.58,0-16.46,5.21-18.98,15.62l-13.78-3.36c3.19-15.12,14.45-24.36,33.26-24.36,21.84,0,31.42,10.58,31.42,30.07v50.23h-13.94v-18.65Zm-.67-10.58v-4.37h-23.02c-10.25,0-16.13,4.03-16.13,11.76,0,6.22,3.86,11.76,15.46,11.76,14.45,0,23.69-8.06,23.69-19.15Z"/><path d="M1166.29,157.8h-14.62V49.95h14.62v107.86Z"/></g></g></g></g></svg>