<svg xmlns="http://www.w3.org/2000/svg" viewBox="0 0 255.75 108.6"><defs><style>.cls-1{fill:#c7aa5c;}</style></defs><title>windmillAsset 2</title><g id="Layer_2" data-name="Layer 2"><g id="Layer_1-2" data-name="Layer 1"><g id="Layer_1-2-2" data-name="Layer 1-2"><path class="cls-1" d="M106.54,38.84a1.83,1.83,0,0,0,1-.37c1-.8,2.52-5.84.27-5.94-2.76-.11-5.64,6.6-1.22,6.31"/><path class="cls-1" d="M244.31,63c-1.31,3.06-5.33,3.75-8.14,2.53h-.08a2.39,2.39,0,0,1-.94-.67c-1.58-2.08,3.11-3.64,4.31-4,1.9-.6,3.89-.84,5.83-1.29a15.65,15.65,0,0,1-1,3.49m-28-23.73a3.08,3.08,0,0,1-1.27-1.8c-.45-1.72,2.11-5,3.16-2.71.43.93-.77,2.9-1.89,4.51M188.23,47.6c2-2.52,6.65-7.84,10.4-5.56,1.58,1,1,4.46.23,6.1-2.6,5.31-7.24,7-13.55,7.8a12.35,12.35,0,0,1,2.92-8.34m67.47,8.25a3.73,3.73,0,0,0-.21-1.4,2.11,2.11,0,0,0-.86-1.19,15.41,15.41,0,0,1-5.4,2.05.85.85,0,0,1-1-.57c-.89-2.6-1.71-5.22-2.5-7.84a10.26,10.26,0,0,1-.67-4.25c.25-1.83,1.64-3.33,1.85-5.17a3.9,3.9,0,0,0-.8-3,1.84,1.84,0,0,0-2.35-.46,2.68,2.68,0,0,0-.72.85,36.27,36.27,0,0,0-2.41,5.63,22.4,22.4,0,0,1-3.17,5.24q-4.49,5.9-9,11.78A24.62,24.62,0,0,1,224.41,62c-1.27,1-3.51,3.53-5.31,2.07a2.42,2.42,0,0,1-.76-1.7c-.23-3.16,2.32-6.25,3.88-8.75,1.24-2,3-3.6,4.17-5.63a5.12,5.12,0,0,0,.74-2.47c0-2.92-2.7-3.9-5-4.52a10.67,10.67,0,0,0-1.25-.26,5.73,5.73,0,0,1-1.2-.43v-.16a13.26,13.26,0,0,0,2.09-4.37,4.35,4.35,0,0,0-5.48-5,6.77,6.77,0,0,0-4.77,7.71,6.25,6.25,0,0,0,.75,1.92,8.18,8.18,0,0,0,1.93,2.44c-3,4-7,12.35-10.47,16-2.6,2.74-5.55,5.27-9.87,6-3.73.63-7.39-1.22-8.12-5.47a20.59,20.59,0,0,0,14.42-7.12c1.94-2.32,3.33-4.87,2.88-8.35-.53-4.1-5.1-5.64-8.94-4.41a18.69,18.69,0,0,0-10.36,8.94c-2,4-2.59,9.35-.69,13.61a10.23,10.23,0,0,0,8.79,6c6.82.33,11.44-3.16,15-7.73s5.85-9.1,8.87-13.83c.71-1.12,1.19-2.46,2.64-2.75,1.6-.31,6.12,1,4.87,3-1.26,1.78-1.83,2.16-3,4-1.87,3.12-4,6.14-5.21,9.61a5.43,5.43,0,0,0,3.19,7,5.28,5.28,0,0,0,2,.34c4.53,0,7.53-3.62,10-6.68L242,46.1q1.35,3.76,2.48,7.58a3.36,3.36,0,0,1,.16,2.1c-.31.77-1.21,1.06-2,1.29a45.24,45.24,0,0,0-6.1,2.09c-1.82.78-5.21,2.39-5.09,4.82.15,3,2.79,4.38,5.39,4.83a9.46,9.46,0,0,0,6.83-.94c2.93-1.82,4.46-5.49,5.2-8.38a1.46,1.46,0,0,1,.86-1c1.18-.51,3.63-1.57,5.14-2.24.3-.13.59-.27.87-.41"/><path class="cls-1" d="M57.88.81c-8-2.69-18.2,1.61-24.12,8.42C26.13,18,27.06,28.17,29.5,37.84a66.85,66.85,0,0,0,4.07,11.25c1.56,3.46,3.17,7,5,10.31A38,38,0,0,1,41,64.31c2.33,6.39,2.37,12.78.11,18A19.75,19.75,0,0,1,24.94,93.87a20.38,20.38,0,0,1-12.65-2.73C4.27,86.26,2,76.38,5.19,67.8A22.7,22.7,0,0,1,17.62,54.43,19,19,0,0,1,24,52.64H25.1a3.24,3.24,0,0,0,.24-2.89h0a20.08,20.08,0,0,0-6.9.63C10,52.46,3.6,59.82,1.16,68A23.8,23.8,0,0,0,2.29,85.53,20.32,20.32,0,0,0,6,90.68,24.9,24.9,0,0,0,22.43,98a23.89,23.89,0,0,0,18-7.11,24.5,24.5,0,0,0,6.38-17.76c-.13-3.09-1.28-6.11-2.25-9A36.39,36.39,0,0,0,42.78,60c-.2-.43-.54-1.06-.79-1.68a148.8,148.8,0,0,1-7.43-16,.85.85,0,0,1-.09-.31,46.26,46.26,0,0,1-1.62-4.59,30,30,0,0,1-.06-17.85,26.64,26.64,0,0,1,1.13-2.84A22.56,22.56,0,0,1,49,4.14,13.33,13.33,0,0,1,58.46,5.4c5.27,3.08,4.95,11.91,2.36,17.09a32,32,0,0,1-6.12,8.25,31.14,31.14,0,0,1-3.35,2.83h0a14.7,14.7,0,0,1-1.81,1.12c-.39.22-.8.41-1.19.64a5.07,5.07,0,0,0-.54.36c-.08.07-.42.32-.4.43A4.56,4.56,0,0,0,48.17,38c.12.17.37.61.59.62s.41-.23.55-.33c.8-.57,1.69-1,2.5-1.6s1.58-1.11,2.34-1.7a43.87,43.87,0,0,0,4.41-4,35.5,35.5,0,0,0,3.73-4.47,26.39,26.39,0,0,0,2.74-5,20.83,20.83,0,0,0,1.45-5.37,2,2,0,0,1,.07-.64c.58-6.3-2.74-12.7-8.67-14.71"/><path class="cls-1" d="M176.74,47.67a23.78,23.78,0,0,1-14.06,15.68,7.44,7.44,0,0,1-3,.73c-1.75,0-3.14-.77-3.14-2.93a18.55,18.55,0,0,1,7-14.44,14.54,14.54,0,0,1,9.38-3.82c3.65,0,4.82,1.44,3.83,4.78M181,40.79a7.74,7.74,0,0,0-1.31,1.65c-2.83-2.76-5.81-3.68-9.09-2.86a25.14,25.14,0,0,0-12.82,8,168.69,168.69,0,0,1-12.8,13.67,12.06,12.06,0,0,1-4.65,3.09,1.43,1.43,0,0,1-1,0c-.7-.36-.51-1.2-.28-1.88a54.07,54.07,0,0,1,3.75-8.71c1.31-2.46,3.15-5.07,3.61-7.78a5.47,5.47,0,0,0-.94-4.22,5.92,5.92,0,0,0-5.42-2c-3.67.51-6.55,3.42-9.31,5.43-.14-.88-.21-1.43-.32-2-.63-3.21-2.26-4.52-5-3.51A10.3,10.3,0,0,0,121,42.84c-3.36,4.1-5.18,9.21-8.47,13.37a21.91,21.91,0,0,1-10.94,7.31,2.35,2.35,0,0,1-1.78-.2c-2.57-1.53-.32-7.27.67-9.56,1.74-4,4.34-7.79,5.55-12a4.69,4.69,0,0,0-2.25-1h-.06c-3.84,2.81-3.78,9.85-8.19,11.46-3.13,1.14-6,1-6.14-4.58,0-1.44.63-2.93.17-4.28a4,4,0,0,0-2.88-.74A4,4,0,0,0,86,43.87c-1.42,3.81-2.26,7.77-4,11.47s-4.71,7.26-8.58,8.47A4.34,4.34,0,0,1,71,64c-2.09-.57-2.4-3.39-1.84-5.61,1.26-5,4.94-9.17,7.17-13.84.53-1.11-.23-1.31-1.31-1.66s-1.72-.44-2.4.51C68.2,49.55,65.2,56.79,59.52,61.86c-1.37,1.22-3.06,2.38-4.86,2.21a2.43,2.43,0,0,1-2.21-1.75,3.68,3.68,0,0,1,.16-1.71c.78-2.62,2.67-5.2,3.75-7.64,1.37-3.11,4.39-6.29,4.42-9.82,0-2.85-2.82-1-4-.09S51.41,48.49,49.84,46a2.3,2.3,0,0,0-.32-.38l-.16.15c-.22.2-.41.44-.61.66-.34.4-.24.24-.56.65a2,2,0,0,0-.34.61c1.9,2.43,4.6,2,7.13.64-.13.22-.27.43-.4.64a1.38,1.38,0,0,0,.22-.26l-.53.76c-.82,1.3-1.65,2.61-2.46,3.92-.26.52-.53,1-.82,1.55-.13.23-.27.46-.41.69a16.54,16.54,0,0,0-1.06,3.21c-.75,3.65.52,7.76,3.85,8.92C57.3,69.12,61.87,66,65,62.63c1.55,5.05,8.94,5.8,13.76,2.57s7.41-8.93,8.89-14.36c.83,3.42,5.12,5.18,8.54,3.5-.72,3-1.45,6.13-.59,9a5.71,5.71,0,0,0,3,3.66c3.72,1.72,8.84-1.69,11.93-4.81,3.7-3.74,5.33-6.51,8-11,1.33-2.25,2.82-6.07,4.7-7.91,1.28-1.24,3.79-2.33,3.93.43a13.07,13.07,0,0,1-1,4.53,69.1,69.1,0,0,1-4.56,9.93c-1.3,2.48-2.68,4.93-3.87,7.47-.16.33-.9,1.49-.78,1.85s1.51.78,1.92.83c1.7.2,2.38-1.89,3.12-3.14,4.15-7.11,8-14.84,14.73-20,1-.79,5.35-3.81,5.86-1,.4,2.17-1.17,4.87-2,6.8-1.6,3.7-3.53,7.27-4.68,11.16-.87,2.92.58,5.07,3.65,5.07s5-2,8-5c3.54-3.54,5-5,7-8-5,11,4.52,14.71,9.74,12.43l4-1.74a6.54,6.54,0,0,1-.63,2.17,1.43,1.43,0,0,1-.09.41C165.21,73,163,78.66,160.44,84.1c-2.53,5.28-5.48,11.13-9.82,15.13a22.69,22.69,0,0,1-3.84,2.84,19.49,19.49,0,0,1-8.78,2.71,12.38,12.38,0,0,1-8.56-2.64c-4.42-3.72-2.44-11.73.76-16.2,1.88-2.62,4.63-4.51,7.29-6.42A40.66,40.66,0,0,1,141.57,77c.27-.15.54-.27.81-.4a2.88,2.88,0,0,0-1.4-2.66c-7.68,3.56-15.08,9.58-17.16,17.62-1.52,5.89.57,12.42,5.76,15.22s12.1,2.17,18-.57c3.11-1.44,6.14-4.85,8.28-7.45a44.61,44.61,0,0,0,6.27-10.35c2.62-5.79,4.42-10.34,7.14-16.38,2.46-5.46,5.54-12.18,8.3-17.49,2.07-4,4.11-8,6-12.1a.8.8,0,0,0,.07-.34c-.7-.86-1.71-1.65-2.72-1.29"/></g></g></g></svg>